<?xml version="1.0" encoding="utf-8"?>
<!-- Generator: Adobe Illustrator 23.0.1, SVG Export Plug-In . SVG Version: 6.00 Build 0)  -->
<svg version="1.1" id="Layer_1" xmlns="http://www.w3.org/2000/svg" xmlns:xlink="http://www.w3.org/1999/xlink" x="0px" y="0px"
	 viewBox="0 0 300 300" style="enable-background:new 0 0 300 300;" xml:space="preserve">
<style type="text/css">
	.st0{fill-rule:evenodd;clip-rule:evenodd;fill:#010101;}
	.st1{fill:#010101;}
	.st2{fill:#2C499E;}
</style>
<g>
	<path id="path4772" class="st0" d="M37.98,162.58c-6.38,1.05-10.32,0.87-10.32,0.87c-1.36-0.09-2.49,0.96-2.54,2.32
		c-0.04,1.36,1.01,2.49,2.32,2.54c0,0,5.51,0.22,13.95-1.4C40.69,165.68,39.24,164.28,37.98,162.58z"/>
	<path id="path4776" class="st0" d="M64.91,133.55c-2.01,0.04-4.42,0.17-7.13,0.52c2.32,1.36,3.1,2.54,4.98,4.33
		c4.77-0.26,7.69,0.13,7.69,0.13c1.31,0.22,2.58-0.7,2.75-2.01c0.17-1.31-0.74-2.58-2.05-2.75
		C71.11,133.81,68.75,133.51,64.91,133.55L64.91,133.55z"/>
</g>
<g>
	<path class="st1" d="M102.15,143.87c-0.26-0.44-0.57-0.66-1.01-0.79c-7.65-2.14-12.59-1.84-14.78,0.96
		c-0.79,0.92-1.27,1.79-1.4,2.75c-0.17,0.92-0.04,1.79,0.35,2.62h-0.04c0.31,0.66,0.79,1.22,1.4,1.75h0.04
		c0.52,0.44,1.05,0.74,1.66,1.05c0.44,0.22,1.4,0.35,2.97,0.39c0.31,0.04,0.92,0.04,1.79,0.04c0.79,0.04,1.4,0.04,1.84,0.04h0.04
		c1.4,0.04,2.84,0.17,3.28,0.31c0.44,0.13,1.27,0.96,1.31,1.36c0.04,0.35,0,0,0,0c0.09,0.22,0.17,0.26,0.09,0.83
		s-0.26,0.48-0.48,0.74v-0.04c-0.26,0.22-0.66,0.39-1.27,0.57c-0.83,0.22-1.84,0.35-3.02,0.35c-1.18,0.04-2.36,0-3.54-0.13
		c-1.14-0.13-2.14-0.35-3.02-0.57c-0.44-0.13-0.87-0.13-1.27,0.13c-0.44,0.17-0.7,0.52-0.83,0.96c-0.13,0.44-0.09,0.87,0.13,1.27
		c0.22,0.39,0.57,0.66,0.96,0.83c1.01,0.35,2.23,0.57,3.63,0.74c1.36,0.13,2.71,0.17,4.07,0.17c1.44-0.04,2.71-0.22,3.76-0.48
		c1.44-0.35,2.45-0.92,3.02-1.66h0.04c0.44-0.57,0.79-1.05,0.96-1.53v-0.04c0.22-0.57,0.35-1.14,0.35-1.7v-0.04
		c-0.04-0.44,0-1.05-0.22-1.62c-0.09-0.31-0.17-0.48-0.61-1.44c-0.44-0.96-1.49-1.57-3.32-1.97h-0.04
		c-0.92-0.17-2.19-0.31-3.85-0.35c-0.48-0.04-1.14-0.04-1.97-0.04c-0.83,0-1.44,0-1.75-0.04c-0.92-0.04-1.49-0.04-1.7-0.13
		c-0.31-0.13-0.57-0.31-0.83-0.52c-0.26-0.22-0.44-0.44-0.57-0.66v-0.04c-0.13-0.17-0.13-0.35-0.09-0.57
		c0.09-0.35,0.26-0.74,0.66-1.14c1.66-1.62,5.42-1.62,11.32,0.04c0.44,0.13,0.87,0.09,1.27-0.17c0.44-0.22,0.7-0.57,0.83-1.01
		C102.42,144.74,102.37,144.31,102.15,143.87z"/>
	<path class="st1" d="M118.64,142.47c-0.35-0.31-0.74-0.48-1.22-0.48h-11.24c-0.44,0-0.87,0.17-1.18,0.48
		c-0.35,0.35-0.52,0.74-0.52,1.18v13.95c0,0.44,0.17,0.87,0.52,1.18c0.31,0.35,0.74,0.52,1.18,0.52h11.28
		c0.48,0,0.87-0.17,1.22-0.52c0.31-0.31,0.48-0.74,0.48-1.18c0-0.48-0.17-0.87-0.48-1.18c-0.35-0.31-0.74-0.48-1.22-0.48h-9.53
		v-3.63h6.99c0.48,0,0.87-0.17,1.22-0.48c0.31-0.31,0.48-0.74,0.48-1.18c0-0.48-0.17-0.87-0.48-1.18c-0.35-0.31-0.74-0.48-1.22-0.48
		h-6.99v-3.63h9.53c0.48,0,0.87-0.17,1.22-0.52c0.31-0.31,0.48-0.7,0.48-1.18C119.12,143.21,118.94,142.82,118.64,142.47z"/>
	<path class="st1" d="M137.57,144.44c-0.09-0.48-0.35-0.87-0.7-1.14c-3.06-2.23-6.47-2.62-9.71-2.05c-1.27,0.31-1.7,0.26-3.1,0.96
		c-1.4,0.7-2.36,1.97-2.36,1.97c-0.66,0.74-1.05,1.62-1.49,2.8c-0.44,1.18-0.44,1.75-0.48,3.24c-0.04,1.44,0.13,2.8,0.57,4.07
		s1.05,2.4,1.92,3.32v-0.04c0.83,0.96,1.88,1.7,3.06,2.23c1.22,0.52,2.54,0.79,3.93,0.79c3.37,0,5.81-0.74,7.3-2.27
		c1.75-1.53,2.49-3.89,2.23-6.99c-0.04-0.48-0.22-0.83-0.52-1.18c-0.35-0.31-0.7-0.44-1.14-0.44h-7.3c-0.44,0-0.87,0.17-1.18,0.52
		c-0.35,0.35-0.52,0.79-0.52,1.31c0,0.48,0.17,0.92,0.52,1.27c0.31,0.35,0.74,0.52,1.18,0.52h5.6c-0.13,0.92-0.48,1.66-1.05,2.23
		c-1.09,0.92-2.8,1.4-5.11,1.4c-0.96,0-1.92-0.17-2.71-0.52l-0.04-0.04c-0.74-0.31-1.36-0.74-1.88-1.36
		c-0.52-0.57-0.92-1.27-1.18-2.01c-0.26-0.83-0.39-1.7-0.35-2.71c0.04-1.05,0.13-1.57,0.35-2.27c0.13-0.52,0.35-0.92,0.66-1.27
		c0,0,0.48-0.79,1.36-1.18c0.83-0.44,1.44-0.52,2.49-0.83h0.04c2.45-0.61,4.81-0.09,7.08,1.57c0.39,0.26,0.83,0.35,1.27,0.26
		c0.44-0.13,0.83-0.35,1.05-0.79C137.57,145.4,137.65,144.96,137.57,144.44z"/>
	<path class="st1" d="M158.77,159.17c0.26-0.39,0.39-0.79,0.35-1.27c-1.75-11.63-4.94-17.31-9.53-17.05
		c-4.59-0.26-7.78,5.25-9.53,16.48c-0.04,0.44,0.04,0.87,0.31,1.22c0.26,0.39,0.66,0.61,1.09,0.66c0.44,0.09,0.87-0.04,1.27-0.31
		c0.35-0.26,0.61-0.66,0.66-1.09c0.22-1.4,0.44-2.71,0.7-3.89l0,0h10.89c0.26,1.36,0.57,2.84,0.79,4.42
		c0.09,0.44,0.26,0.83,0.66,1.09c0.35,0.26,0.79,0.39,1.22,0.31C158.16,159.74,158.51,159.52,158.77,159.17z M144.95,150.64
		c1.22-4.11,2.8-6.25,4.63-6.43c1.79,0.13,3.32,2.27,4.59,6.43H144.95z"/>
	<path class="st1" d="M184.21,143.74c-0.26-0.44-0.61-0.66-1.01-0.83c-7.74-2.19-12.72-1.84-14.91,1.01
		c-0.79,0.92-1.27,1.84-1.4,2.75c-0.17,0.92-0.04,1.79,0.35,2.67h-0.04c0.31,0.66,0.79,1.22,1.4,1.79h0.04
		c0.52,0.44,1.05,0.74,1.66,1.05c0.44,0.22,1.4,0.35,3.02,0.39c0.31,0.04,0.92,0.04,1.79,0.04c0.79,0.04,1.4,0.04,1.88,0.04h0.04
		c1.4,0.04,2.84,0.17,3.32,0.31c0.44,0.13,1.27,0.96,1.31,1.36c0.04,0.39,0,0,0,0c0.09,0.22,0.17,0.26,0.09,0.87
		c-0.09,0.57-0.26,0.48-0.48,0.74v-0.04c-0.26,0.22-0.7,0.39-1.27,0.57c-0.83,0.22-1.88,0.35-3.06,0.35c-1.18,0.04-2.36,0-3.58-0.13
		c-1.18-0.13-2.19-0.35-3.02-0.61c-0.44-0.13-0.87-0.13-1.27,0.13c-0.44,0.22-0.7,0.52-0.83,1.01c-0.13,0.44-0.09,0.87,0.13,1.31
		c0.22,0.39,0.57,0.66,1.01,0.83c1.01,0.35,2.23,0.57,3.63,0.74c1.4,0.13,2.75,0.22,4.11,0.17c1.49-0.04,2.75-0.22,3.8-0.48
		c1.49-0.35,2.49-0.92,3.02-1.66h0.04c0.44-0.57,0.79-1.09,1.01-1.53v-0.04c0.22-0.57,0.35-1.14,0.35-1.7v-0.04
		c-0.04-0.44,0-1.05-0.22-1.62c-0.09-0.31-0.17-0.48-0.61-1.44c-0.44-0.96-1.53-1.62-3.37-2.01h-0.04
		c-0.92-0.17-2.19-0.31-3.89-0.35c-0.48-0.04-1.14-0.04-1.97-0.04s-1.44,0-1.75-0.04c-0.92-0.04-1.49-0.04-1.7-0.13
		c-0.31-0.13-0.61-0.31-0.83-0.52c-0.26-0.22-0.44-0.44-0.57-0.66v-0.04c-0.13-0.17-0.13-0.35-0.09-0.57
		c0.09-0.35,0.26-0.74,0.66-1.14c1.7-1.62,5.51-1.62,11.41,0.04c0.44,0.13,0.87,0.09,1.27-0.17c0.44-0.22,0.7-0.57,0.83-1.01
		C184.52,144.57,184.43,144.17,184.21,143.74z"/>
	<path class="st1" d="M188.8,160.17c0.35-0.26,0.61-0.66,0.7-1.09c0.22-1.4,0.44-2.71,0.7-3.89h10.97c0.31,1.36,0.57,2.84,0.79,4.46
		c0.09,0.44,0.26,0.83,0.7,1.09c0.35,0.26,0.79,0.39,1.22,0.31c0.44-0.04,0.83-0.26,1.09-0.66s0.39-0.79,0.35-1.27
		c-1.79-11.72-4.98-17.49-9.62-17.18c-4.63-0.26-7.83,5.25-9.57,16.61c-0.09,0.44,0.04,0.87,0.31,1.22
		c0.26,0.39,0.66,0.61,1.09,0.66C188.02,160.57,188.41,160.44,188.8,160.17z M191.03,151.78c1.22-4.15,2.8-6.34,4.68-6.47
		c1.84,0.13,3.37,2.32,4.63,6.47H191.03z"/>
	<path class="st1" d="M220.28,143.26c-0.35-0.31-0.74-0.48-1.22-0.48h-14.69c-0.44,0-0.87,0.17-1.18,0.48
		c-0.35,0.35-0.52,0.74-0.52,1.22c0,0.44,0.17,0.87,0.52,1.18c0.31,0.35,0.74,0.52,1.18,0.52h5.64v12.94c0,0.44,0.17,0.87,0.52,1.18
		c0.31,0.35,0.74,0.52,1.18,0.52c0.48,0,0.87-0.17,1.22-0.52c0.31-0.31,0.48-0.74,0.48-1.18v-12.98h5.64c0.48,0,0.87-0.17,1.22-0.52
		c0.31-0.31,0.48-0.74,0.48-1.18C220.76,144,220.58,143.61,220.28,143.26z"/>
	<path class="st1" d="M240.56,142.91c-0.35-0.35-0.74-0.52-1.22-0.52c-0.44,0-0.87,0.17-1.18,0.52c-0.35,0.31-0.52,0.74-0.52,1.18
		v8.35c0,0.66-0.13,1.27-0.35,1.84c-0.22,0.57-0.61,1.05-1.01,1.53c-0.44,0.44-0.92,0.79-1.53,1.01c-0.57,0.26-1.18,0.35-1.84,0.35
		h-2.54c-0.66,0-1.22-0.13-1.84-0.35c-0.61-0.22-1.09-0.61-1.53-1.01c-0.44-0.44-0.74-0.92-1.01-1.49v-0.04
		c-0.22-0.57-0.35-1.18-0.35-1.84v-8.35c0-0.44-0.17-0.87-0.48-1.18c-0.35-0.35-0.74-0.52-1.22-0.52c-0.44,0-0.87,0.17-1.18,0.52
		c-0.35,0.31-0.52,0.74-0.52,1.18v8.35c0,1.09,0.22,2.14,0.61,3.15h0.04c0.39,1.01,1.01,1.84,1.7,2.58
		c0.74,0.74,1.62,1.31,2.58,1.75c1.01,0.44,2.05,0.61,3.19,0.61h2.54c1.14,0,2.19-0.22,3.19-0.61h-0.04
		c1.01-0.44,1.84-1.01,2.62-1.75c0.74-0.74,1.31-1.62,1.75-2.58v0.04c0.44-1.01,0.61-2.05,0.61-3.19v-8.35
		C241.04,143.65,240.87,143.21,240.56,142.91z"/>
	<path class="st1" d="M243.27,142.95c-0.31,0.31-0.48,0.66-0.48,1.14v14.56c0,0.44,0.17,0.87,0.52,1.18
		c0.35,0.35,0.83,0.48,1.31,0.48c0.52,0,0.92-0.17,1.27-0.48c0.35-0.31,0.52-0.74,0.52-1.18v-13.03c3.89-0.22,6.86-0.04,8.92,0.57
		c1.57,0.48,2.4,1.27,2.49,2.36c0.04,0.87-0.35,1.49-1.09,1.84c-1.22,0.52-2.97,0.66-5.33,0.39c-0.44-0.04-0.79,0.04-1.14,0.26
		c-0.35,0.17-0.61,0.48-0.74,0.83c-0.13,0.35-0.13,0.7-0.04,1.05c0.13,0.35,0.35,0.66,0.7,0.87l9.01,6.16
		c0.39,0.26,0.83,0.39,1.31,0.31c0.52-0.04,0.92-0.26,1.22-0.66c0.26-0.35,0.39-0.79,0.35-1.22c-0.09-0.48-0.35-0.83-0.74-1.14
		l-4.81-3.28c0.7-0.17,1.31-0.35,1.79-0.61c2.05-0.96,3.06-2.58,3.1-4.85c0.13-2.67-1.57-4.55-4.98-5.55
		c-2.67-0.83-6.69-1.05-12.02-0.61C243.97,142.38,243.58,142.6,243.27,142.95z"/>
	<path class="st1" d="M264.17,143.21c-0.22,0.26-0.31,0.61-0.31,0.96v14.65c0,0.44,0.17,0.87,0.52,1.18
		c0.31,0.35,0.74,0.52,1.18,0.52c0.48,0,0.87-0.17,1.22-0.52c0.31-0.31,0.48-0.74,0.48-1.18v-10.45l11.24,11.59
		c0.26,0.26,0.52,0.44,0.87,0.52c0.35,0.04,0.66,0.04,1.01-0.09c0.31-0.13,0.57-0.35,0.79-0.66c0.22-0.26,0.26-0.61,0.26-0.92
		v-14.65c0-0.48-0.17-0.87-0.48-1.22c-0.35-0.31-0.74-0.48-1.22-0.48c-0.44,0-0.87,0.17-1.18,0.48c-0.35,0.35-0.52,0.74-0.52,1.22
		v10.45l-11.19-11.63c-0.26-0.22-0.52-0.39-0.87-0.48c-0.35-0.04-0.7-0.04-1.01,0.13C264.61,142.73,264.35,142.95,264.17,143.21z"/>
</g>
<g>
	<g>
		<path class="st1" d="M94.37,160.57c-1.14,0-2.27-0.04-3.41-0.17c-1.57-0.17-2.75-0.44-3.72-0.74c-0.52-0.17-0.92-0.52-1.22-1.01
			c-0.26-0.57-0.31-1.14-0.13-1.62c0.17-0.57,0.52-0.96,1.05-1.22c0.44-0.26,1.01-0.31,1.57-0.13c0.79,0.22,1.79,0.44,2.93,0.57
			c1.09,0.13,2.27,0.17,3.5,0.13c1.05-0.04,2.05-0.13,2.93-0.35c0.57-0.17,0.92-0.31,1.09-0.48c0.04,0,0.04-0.04,0.09-0.04
			c0.04-0.04,0.09-0.09,0.13-0.13c0.09-0.04,0.09-0.09,0.13-0.31c0.04-0.17,0.04-0.31,0.04-0.35c0,0,0-0.04-0.04-0.04l0,0l0,0l0,0
			l0,0l0,0l0,0l0,0l0,0l0,0l0,0c-0.04-0.04-0.04-0.09-0.04-0.13l-0.04-0.17l0,0c-0.04-0.22-0.7-0.92-1.05-1.01
			c-0.35-0.13-1.7-0.26-3.19-0.31c-0.31,0-0.57,0-0.92-0.04c-0.26,0-0.61,0-0.96-0.04c-0.87,0-1.49,0-1.84-0.04
			c-1.57-0.04-2.62-0.17-3.15-0.44c-0.57-0.26-1.14-0.61-1.66-1.01c-0.04,0-0.09-0.04-0.09-0.04c-0.66-0.57-1.18-1.22-1.49-1.88
			c0-0.04-0.04-0.09-0.04-0.13c-0.39-0.87-0.52-1.75-0.35-2.75c0.13-0.96,0.66-1.92,1.49-2.93c1.31-1.66,3.54-2.54,6.65-2.54
			c2.32,0,5.2,0.48,8.57,1.4c0.57,0.17,0.96,0.52,1.27,1.01c0.31,0.57,0.35,1.09,0.17,1.57c-0.13,0.52-0.48,0.96-1.01,1.22
			c-0.26,0.17-0.61,0.26-0.96,0.26l0,0c-0.17,0-0.39-0.04-0.57-0.09c-5.64-1.62-9.36-1.66-10.93-0.17
			c-0.26,0.26-0.44,0.57-0.52,0.92c-0.04,0.09,0,0.17,0.04,0.22c0.04,0.04,0.04,0.09,0.04,0.13c0.09,0.13,0.22,0.31,0.44,0.48
			c0.17,0.13,0.39,0.31,0.66,0.44c0.26,0.04,1.18,0.09,1.57,0.09c0.31,0.04,0.92,0.04,1.75,0.04c0.35,0,0.7,0,0.96,0.04
			c0.39,0,0.74,0,1.01,0.04c1.53,0.04,2.84,0.17,3.85,0.35c0.04,0,0.04,0,0.09,0c1.97,0.44,3.1,1.14,3.58,2.23l0.09,0.17
			c0.39,0.83,0.48,1.01,0.57,1.31c0.17,0.48,0.22,1.01,0.22,1.44c0,0.09,0,0.17,0,0.26v0.09c0,0.61-0.13,1.22-0.35,1.79
			c0,0.04,0,0.09-0.04,0.09c-0.22,0.44-0.52,0.96-1.05,1.62c-0.04,0.04-0.04,0.04-0.09,0.09c-0.61,0.74-1.66,1.31-3.15,1.7
			c-1.09,0.26-2.4,0.44-3.85,0.48C94.81,160.57,94.59,160.57,94.37,160.57z M87.86,156.42c-0.17,0-0.39,0.04-0.57,0.13
			c-0.35,0.17-0.57,0.39-0.66,0.74c-0.13,0.39,0,0.74,0.09,1.01c0.17,0.26,0.44,0.48,0.74,0.61c0.92,0.31,2.05,0.52,3.54,0.7
			c1.36,0.13,2.67,0.17,4.02,0.17c1.4-0.04,2.62-0.22,3.67-0.48c1.36-0.35,2.27-0.83,2.75-1.49c0.04-0.04,0.09-0.09,0.09-0.09
			c0.39-0.48,0.66-0.92,0.83-1.27c0-0.04,0-0.04,0-0.09c0.22-0.52,0.31-1.01,0.31-1.53v-0.04c0-0.09,0-0.17,0-0.26
			c0-0.39-0.04-0.79-0.17-1.18c-0.09-0.26-0.13-0.44-0.52-1.22l-0.09-0.17c-0.39-0.83-1.36-1.4-3.02-1.75h-0.04
			c-0.7-0.13-1.88-0.31-3.76-0.35c-0.26,0-0.61-0.04-1.01-0.04c-0.31,0-0.61,0-0.96-0.04c-0.87,0-1.44,0-1.75-0.04
			c-1.05-0.04-1.53-0.04-1.79-0.13c-0.04,0-0.04,0-0.09-0.04c-0.35-0.17-0.66-0.35-0.92-0.57c-0.31-0.26-0.52-0.52-0.66-0.79
			c0-0.04-0.04-0.04-0.04-0.09c-0.13-0.26-0.17-0.52-0.09-0.79c0.09-0.48,0.35-0.92,0.74-1.27c1.84-1.75,5.73-1.75,11.72-0.04
			c0.35,0.09,0.66,0.04,0.92-0.13c0.35-0.17,0.57-0.44,0.66-0.74c0.13-0.35,0.09-0.66-0.09-0.96c-0.17-0.31-0.44-0.48-0.79-0.61
			c-3.28-0.92-6.08-1.4-8.31-1.4c-2.84,0-4.85,0.74-6.03,2.23c-0.79,0.92-1.18,1.75-1.31,2.54c-0.17,0.87-0.04,1.62,0.31,2.36
			c0,0.04,0.04,0.09,0.04,0.13c0.26,0.52,0.66,1.01,1.18,1.44c0.04,0,0.04,0.04,0.09,0.04c0.48,0.39,1.01,0.7,1.57,0.96
			c0.22,0.13,0.87,0.31,2.8,0.35c0.31,0.04,0.92,0.04,1.79,0.04c0.35,0,0.66,0,0.96,0.04c0.35,0,0.66,0,0.92,0.04
			c1.44,0.04,2.89,0.17,3.41,0.31c0.52,0.17,1.44,1.05,1.57,1.62l0.04,0.04c0.09,0.22,0.17,0.44,0.09,0.96s-0.26,0.66-0.44,0.83
			c-0.04,0.04-0.09,0.09-0.13,0.13c-0.04,0.04-0.13,0.09-0.17,0.13c-0.26,0.22-0.66,0.35-1.27,0.52c-0.96,0.22-2.01,0.35-3.15,0.39
			c-0.26,0-0.52,0-0.79,0c-1.01,0-1.92-0.04-2.8-0.13c-1.18-0.13-2.23-0.35-3.06-0.61C88.12,156.42,87.99,156.42,87.86,156.42z"/>
	</g>
	<g>
		<path class="st1" d="M117.46,159.69h-11.24c-0.57,0-1.09-0.22-1.49-0.66c-0.39-0.35-0.61-0.87-0.61-1.44v-13.9
			c0-0.57,0.22-1.09,0.61-1.49c0.39-0.39,0.92-0.61,1.44-0.61h11.28c0.57,0,1.05,0.17,1.49,0.57c0.39,0.44,0.61,0.96,0.61,1.49
			c0,0.57-0.22,1.05-0.61,1.44c-0.44,0.39-0.92,0.61-1.49,0.61h-9.14v2.8h6.6c0.57,0,1.05,0.17,1.49,0.57
			c0.39,0.44,0.61,0.96,0.61,1.49c0,0.57-0.22,1.09-0.61,1.44c-0.44,0.39-0.92,0.61-1.49,0.61h-6.6v2.8h9.14
			c0.57,0,1.05,0.17,1.49,0.57c0.39,0.44,0.61,0.96,0.61,1.49c0,0.57-0.22,1.09-0.61,1.44C118.5,159.52,118.02,159.69,117.46,159.69
			z M106.22,142.38c-0.35,0-0.66,0.13-0.87,0.35c-0.26,0.26-0.39,0.57-0.39,0.92v13.95c0,0.35,0.13,0.66,0.39,0.87
			c0.26,0.26,0.57,0.39,0.92,0.39h11.19c0.35,0,0.66-0.13,0.92-0.39c0.22-0.22,0.35-0.52,0.35-0.87c0-0.35-0.13-0.66-0.35-0.92
			c-0.26-0.22-0.57-0.35-0.92-0.35h-9.53c-0.22,0-0.39-0.17-0.39-0.39v-3.63c0-0.22,0.17-0.39,0.39-0.39h6.99
			c0.35,0,0.66-0.13,0.92-0.39c0.22-0.22,0.35-0.52,0.35-0.87c0-0.35-0.13-0.66-0.35-0.92c-0.26-0.22-0.57-0.35-0.92-0.35h-6.99
			c-0.22,0-0.39-0.17-0.39-0.39v-3.63c0-0.22,0.17-0.39,0.39-0.39h9.53c0.35,0,0.66-0.13,0.92-0.39c0.22-0.22,0.35-0.52,0.35-0.87
			s-0.13-0.66-0.35-0.92c-0.26-0.22-0.57-0.35-0.92-0.35L106.22,142.38L106.22,142.38z"/>
	</g>
	<g>
		<path class="st1" d="M129.22,160.96c-1.44,0-2.84-0.26-4.11-0.83c-1.18-0.48-2.23-1.22-3.15-2.19c-0.04,0-0.04-0.04-0.09-0.09
			c-0.92-0.96-1.57-2.14-2.01-3.5c-0.44-1.36-0.66-2.71-0.57-4.2v-0.22c0.04-1.27,0.09-1.92,0.52-3.1c0.48-1.22,0.83-2.14,1.57-2.93
			c0-0.04,1.01-1.36,2.49-2.05c1.14-0.57,1.66-0.66,2.45-0.83c0.22-0.04,0.48-0.09,0.74-0.17c0.92-0.17,1.79-0.26,2.67-0.26
			c2.71,0,5.2,0.79,7.39,2.36c0.48,0.35,0.74,0.83,0.87,1.4c0.09,0.61,0,1.18-0.31,1.66c-0.31,0.48-0.74,0.79-1.31,0.96
			c-0.17,0.04-0.31,0.04-0.44,0.04l0,0c-0.39,0-0.79-0.13-1.18-0.39c-2.14-1.57-4.42-2.1-6.78-1.53c-0.04,0-0.04,0-0.09,0
			l-0.39,0.09c-0.79,0.22-1.31,0.35-1.97,0.66c-0.74,0.35-1.18,1.05-1.18,1.05l-0.04,0.04c-0.26,0.31-0.44,0.66-0.57,1.09
			c-0.17,0.7-0.31,1.22-0.31,2.19c-0.04,0.96,0.09,1.79,0.35,2.54c0.26,0.74,0.61,1.36,1.09,1.88c0.48,0.57,1.05,0.96,1.75,1.22
			c0.04,0,0.09,0.04,0.09,0.04c0.74,0.31,1.62,0.44,2.49,0.44c2.23,0,3.85-0.44,4.85-1.31c0.39-0.39,0.66-0.92,0.83-1.53h-5.11
			c-0.57,0-1.09-0.26-1.49-0.7c-0.39-0.39-0.61-0.92-0.61-1.53s0.22-1.14,0.61-1.57c0.39-0.44,0.92-0.66,1.49-0.66h7.3
			c0.52,0,1.01,0.17,1.4,0.57c0.44,0.44,0.61,0.92,0.66,1.44c0.31,3.24-0.48,5.68-2.36,7.34
			C135.2,160.17,132.67,160.96,129.22,160.96z M122.4,157.2c0.04,0,0.09,0.04,0.09,0.09c0.83,0.92,1.79,1.66,2.93,2.1
			c1.18,0.52,2.45,0.74,3.8,0.74c3.24,0,5.6-0.74,7.04-2.14c1.7-1.49,2.36-3.67,2.1-6.69c0-0.35-0.13-0.66-0.44-0.96
			c-0.26-0.22-0.52-0.35-0.87-0.35h-7.3c-0.35,0-0.66,0.13-0.87,0.39c-0.26,0.31-0.39,0.61-0.39,1.01c0,0.39,0.13,0.74,0.39,1.01
			c0.26,0.31,0.57,0.44,0.87,0.44h5.64c0.13,0,0.22,0.04,0.31,0.13c0.09,0.09,0.13,0.22,0.09,0.31c-0.13,0.96-0.52,1.84-1.14,2.49
			c-1.18,1.01-2.97,1.53-5.42,1.53c-1.01,0-2.01-0.17-2.89-0.52c-0.04,0-0.09-0.04-0.09-0.04c-0.79-0.35-1.4-0.79-1.97-1.4
			s-0.96-1.31-1.27-2.19c-0.31-0.83-0.39-1.79-0.39-2.84c0.04-1.05,0.13-1.66,0.35-2.36c0.17-0.57,0.39-1.05,0.74-1.4
			c0.13-0.17,0.66-0.87,1.49-1.31c0.74-0.39,1.36-0.52,2.14-0.74l0.44-0.13c0.04,0,0.04,0,0.09,0c2.58-0.61,5.03-0.04,7.39,1.66
			c0.22,0.13,0.44,0.22,0.7,0.22l0,0c0.09,0,0.17,0,0.26-0.04c0.35-0.09,0.61-0.31,0.79-0.61c0.22-0.31,0.26-0.66,0.22-1.09
			c-0.04-0.35-0.26-0.66-0.52-0.87c-2.67-1.92-5.86-2.62-9.4-1.97c-0.26,0.04-0.52,0.13-0.74,0.17c-0.74,0.17-1.22,0.26-2.27,0.79
			c-1.31,0.66-2.23,1.84-2.23,1.88c-0.66,0.7-0.96,1.53-1.44,2.71c-0.39,1.05-0.44,1.57-0.48,2.84v0.22
			c-0.04,1.4,0.13,2.67,0.52,3.93C121.04,155.32,121.61,156.37,122.4,157.2z"/>
	</g>
	<g>
		<path class="st1" d="M157.41,160.22L157.41,160.22c-0.44,0-0.83-0.13-1.18-0.44c-0.44-0.31-0.7-0.74-0.83-1.36
			c-0.22-1.49-0.48-2.84-0.7-4.11h-10.23c-0.22,1.09-0.44,2.27-0.61,3.54c-0.09,0.57-0.39,1.01-0.83,1.36
			c-0.52,0.35-1.01,0.48-1.57,0.39c-0.52-0.09-1.01-0.35-1.36-0.83c-0.31-0.44-0.44-0.92-0.39-1.53
			c1.75-11.45,5.07-17.14,9.92-16.83c0.09,0,0.17,0,0.31,0c4.68,0,7.83,5.68,9.62,17.4c0.09,0.57-0.04,1.09-0.39,1.53
			c-0.35,0.48-0.83,0.74-1.4,0.79C157.63,160.22,157.5,160.22,157.41,160.22z M144.12,153.57h10.89c0.17,0,0.35,0.13,0.39,0.31
			c0.31,1.36,0.57,2.84,0.79,4.46c0.09,0.35,0.22,0.61,0.52,0.83c0.31,0.22,0.61,0.31,0.92,0.22c0.35-0.04,0.61-0.22,0.83-0.48
			c0.22-0.31,0.31-0.61,0.26-0.96c-1.7-11.32-4.81-16.96-9.09-16.7c-0.13,0-0.26,0-0.35,0c-4.2,0-7.17,5.42-8.79,16.18
			c-0.04,0.35,0.04,0.66,0.22,0.92c0.22,0.31,0.48,0.48,0.83,0.52c0.09,0,0.17,0.04,0.22,0.04c0.26,0,0.48-0.09,0.74-0.26
			c0.26-0.22,0.44-0.48,0.52-0.83c0.22-1.36,0.44-2.67,0.7-3.89C143.73,153.7,143.9,153.57,144.12,153.57z M154.18,151.04h-9.22
			c-0.13,0-0.26-0.04-0.31-0.17c-0.09-0.09-0.09-0.22-0.04-0.35c1.31-4.33,2.93-6.56,4.98-6.69h0.04c2.01,0.17,3.63,2.36,4.94,6.69
			c0.04,0.13,0,0.26-0.04,0.35C154.4,150.99,154.27,151.04,154.18,151.04z M145.48,150.21h8.13c-1.14-3.54-2.49-5.46-4.02-5.6
			C148.01,144.79,146.61,146.67,145.48,150.21z"/>
	</g>
	<g>
		<path class="st1" d="M176.39,160.57c-1.14,0-2.27-0.04-3.45-0.17c-1.57-0.17-2.75-0.44-3.72-0.74c-0.52-0.17-0.92-0.52-1.22-1.01
			c-0.26-0.57-0.31-1.14-0.13-1.62c0.17-0.57,0.52-0.96,1.05-1.22c0.44-0.26,1.05-0.31,1.57-0.13c0.79,0.22,1.79,0.44,2.93,0.57
			c1.09,0.13,2.32,0.17,3.54,0.13c1.05-0.04,2.05-0.13,2.97-0.35c0.39-0.13,0.87-0.26,1.09-0.48c0.04,0,0.04-0.04,0.09-0.04
			c0.04-0.04,0.09-0.09,0.13-0.13c0.09-0.04,0.09-0.09,0.13-0.31c0.04-0.17,0.04-0.31,0.04-0.39c-0.04-0.04-0.09-0.13-0.09-0.17
			l-0.04-0.17l0,0c-0.04-0.22-0.7-0.92-1.05-1.05c-0.35-0.13-1.7-0.26-3.19-0.31c-0.31,0-0.61-0.04-0.96-0.04
			c-0.26,0-0.61,0-0.92-0.04c-0.92,0-1.49,0-1.84-0.04c-1.62-0.04-2.67-0.17-3.15-0.44c-0.61-0.26-1.14-0.61-1.66-1.05
			c-0.04,0-0.09-0.04-0.09-0.04c-0.7-0.57-1.18-1.22-1.53-1.92c0-0.04-0.04-0.09-0.04-0.13c-0.39-0.87-0.52-1.79-0.35-2.75
			c0.13-0.96,0.66-1.92,1.49-2.93c1.31-1.7,3.58-2.54,6.69-2.54c2.36,0,5.25,0.48,8.61,1.44c0.57,0.17,0.96,0.52,1.27,1.01
			c0.31,0.57,0.35,1.09,0.17,1.62c-0.13,0.52-0.48,0.96-1.01,1.22c-0.26,0.17-0.61,0.26-1.01,0.26l0,0c-0.17,0-0.39-0.04-0.57-0.09
			c-5.68-1.62-9.44-1.66-11.02-0.17c-0.26,0.26-0.44,0.57-0.52,0.92c-0.04,0.09,0,0.17,0.04,0.26c0.04,0.04,0.04,0.09,0.04,0.13
			c0.09,0.13,0.22,0.31,0.44,0.48c0.17,0.13,0.39,0.31,0.7,0.44c0.31,0.04,1.22,0.09,1.62,0.09c0.31,0.04,0.92,0.04,1.75,0.04
			c0.39,0,0.74,0,1.05,0.04c0.39,0,0.7,0,0.96,0.04c1.53,0.04,2.89,0.17,3.89,0.35c0.04,0,0.04,0,0.09,0
			c1.97,0.44,3.1,1.14,3.63,2.23l0.09,0.17c0.39,0.83,0.48,1.01,0.57,1.31c0.17,0.48,0.22,1.01,0.22,1.44c0,0.09,0,0.17,0,0.26v0.09
			c0,0.61-0.13,1.22-0.35,1.84c0,0.04,0,0.09-0.04,0.09c-0.22,0.48-0.57,1.01-1.05,1.62c-0.04,0.04-0.04,0.04-0.09,0.09
			c-0.61,0.74-1.66,1.36-3.19,1.7c-1.14,0.26-2.4,0.44-3.89,0.48C176.82,160.57,176.61,160.57,176.39,160.57z M169.83,156.37
			c-0.17,0-0.39,0.04-0.57,0.13c-0.35,0.17-0.57,0.39-0.66,0.74c-0.13,0.39,0,0.74,0.09,1.01c0.17,0.26,0.44,0.48,0.74,0.61
			c0.92,0.31,2.05,0.52,3.58,0.7c1.4,0.13,2.71,0.17,4.07,0.17c1.4-0.04,2.62-0.22,3.72-0.48c1.36-0.35,2.32-0.83,2.8-1.49
			c0.04-0.04,0.09-0.09,0.13-0.09c0.39-0.48,0.66-0.92,0.83-1.27c0-0.04,0-0.04,0-0.09c0.22-0.52,0.31-1.05,0.31-1.57
			c0-0.13,0-0.22,0-0.35c0-0.39-0.04-0.79-0.17-1.22c-0.09-0.31-0.13-0.44-0.52-1.22l-0.09-0.17c-0.39-0.83-1.36-1.4-3.02-1.75
			h-0.04c-0.7-0.13-1.88-0.31-3.8-0.35c-0.26,0-0.57-0.04-0.92-0.04c-0.31,0-0.66,0-1.05-0.04c-0.87,0-1.44,0-1.79-0.04
			c-1.05-0.04-1.53-0.04-1.79-0.13c-0.04,0-0.04,0-0.09-0.04c-0.35-0.17-0.66-0.35-0.92-0.57c-0.31-0.26-0.52-0.52-0.66-0.79
			c0-0.04-0.04-0.04-0.04-0.09c-0.13-0.26-0.17-0.52-0.09-0.83c0.09-0.48,0.35-0.92,0.74-1.31c1.84-1.75,5.77-1.79,11.8-0.04
			c0.35,0.09,0.66,0.04,0.96-0.13c0.35-0.17,0.57-0.44,0.66-0.79c0.13-0.35,0.09-0.66-0.09-0.96c-0.17-0.31-0.44-0.52-0.79-0.61
			c-3.28-0.92-6.12-1.4-8.39-1.4c-2.89,0-4.9,0.74-6.08,2.23c-0.79,0.92-1.22,1.75-1.36,2.58c-0.17,0.87-0.04,1.66,0.31,2.4
			c0.04,0.04,0.04,0.09,0.04,0.13c0.26,0.52,0.66,1.01,1.18,1.44c0.04,0,0.04,0.04,0.09,0.04c0.48,0.39,1.01,0.7,1.57,1.01
			c0.22,0.13,0.87,0.31,2.84,0.35c0.31,0.04,0.92,0.04,1.79,0.04c0.35,0,0.66,0,0.96,0.04c0.39,0,0.7,0,0.96,0.04
			c0.48,0,3.19,0.26,3.45,0.31c0.52,0.17,1.44,1.05,1.62,1.62l0.04,0.04c0.09,0.22,0.17,0.44,0.09,0.96s-0.26,0.7-0.44,0.83
			c-0.04,0.04-0.09,0.09-0.13,0.13c-0.04,0.04-0.13,0.09-0.17,0.13c-0.26,0.22-0.66,0.35-1.31,0.52c-0.96,0.22-2.05,0.35-3.15,0.39
			c-0.26,0-0.57,0-0.83,0c-1.01,0-1.92-0.04-2.84-0.17c-1.18-0.13-2.23-0.35-3.1-0.61C170.09,156.37,169.96,156.37,169.83,156.37z"
			/>
	</g>
	<g>
		<path class="st1" d="M203.62,161.49c-0.44,0-0.83-0.13-1.18-0.44c-0.44-0.31-0.7-0.74-0.83-1.36c-0.22-1.53-0.48-2.89-0.74-4.15
			h-10.32c-0.22,1.09-0.44,2.32-0.61,3.58c-0.09,0.57-0.39,1.01-0.83,1.36c-0.39,0.31-0.79,0.44-1.22,0.44l0,0
			c-0.13,0-0.26,0-0.39-0.04c-0.52-0.04-1.01-0.35-1.36-0.83c-0.35-0.44-0.48-1.01-0.39-1.53c1.79-11.72,5.07-17.27,10.01-16.96
			c0.09,0,0.17,0,0.31,0c4.72,0,7.91,5.73,9.71,17.53c0.09,0.57-0.04,1.09-0.39,1.57c-0.35,0.48-0.83,0.74-1.4,0.83
			C203.84,161.44,203.71,161.49,203.62,161.49z M190.2,154.75h10.97c0.17,0,0.35,0.13,0.39,0.31c0.26,1.36,0.57,2.84,0.79,4.5
			c0.09,0.35,0.22,0.61,0.52,0.83c0.31,0.22,0.61,0.31,0.92,0.26c0.35-0.04,0.61-0.22,0.87-0.48c0.22-0.31,0.31-0.61,0.26-0.96
			c-1.75-11.45-4.81-17.09-9.18-16.83c-0.17,0-0.26,0-0.35,0c-4.2,0-7.17,5.46-8.87,16.31c-0.04,0.35,0,0.66,0.22,0.92
			c0.22,0.31,0.48,0.48,0.83,0.52c0.09,0,0.17,0.04,0.26,0.04l0,0c0.26,0,0.48-0.09,0.74-0.26c0.26-0.22,0.44-0.48,0.52-0.83
			c0.22-1.4,0.44-2.71,0.7-3.93C189.85,154.89,189.98,154.75,190.2,154.75z M200.34,152.17h-9.31c-0.13,0-0.26-0.04-0.31-0.17
			c-0.09-0.09-0.09-0.22-0.04-0.35c1.31-4.37,2.97-6.6,5.03-6.78c0.04,0,0.04,0,0.04,0c2.05,0.17,3.67,2.36,4.98,6.78
			c0.04,0.13,0,0.26-0.04,0.35C200.61,152.13,200.47,152.17,200.34,152.17z M191.6,151.39h8.22c-1.14-3.58-2.49-5.51-4.07-5.64
			C194.14,145.88,192.74,147.76,191.6,151.39z"/>
	</g>
	<g>
		<path class="st1" d="M211.71,161.18c-0.57,0-1.09-0.22-1.49-0.66c-0.39-0.35-0.61-0.87-0.61-1.44v-12.5h-5.25
			c-0.57,0-1.09-0.22-1.49-0.66c-0.39-0.35-0.61-0.87-0.61-1.44s0.22-1.09,0.61-1.49s0.92-0.61,1.49-0.61h14.69
			c0.57,0,1.05,0.17,1.49,0.57c0.44,0.44,0.61,0.96,0.61,1.53s-0.22,1.09-0.61,1.49c-0.39,0.39-0.92,0.61-1.49,0.61h-5.25v12.55
			c0,0.57-0.22,1.09-0.61,1.49C212.8,161.01,212.32,161.18,211.71,161.18z M204.37,143.17c-0.35,0-0.66,0.13-0.92,0.35
			c-0.26,0.26-0.39,0.57-0.39,0.92c0,0.35,0.13,0.66,0.39,0.87c0.26,0.26,0.57,0.39,0.92,0.39h5.64c0.22,0,0.39,0.17,0.39,0.39
			v12.94c0,0.35,0.13,0.66,0.39,0.87c0.26,0.26,0.57,0.39,0.92,0.39c0.35,0,0.66-0.13,0.92-0.39c0.22-0.22,0.35-0.57,0.35-0.87
			v-12.9c0-0.22,0.17-0.39,0.39-0.39h5.64c0.35,0,0.66-0.13,0.92-0.39c0.22-0.22,0.35-0.57,0.35-0.87c0-0.35-0.13-0.66-0.39-0.92
			c-0.26-0.22-0.57-0.35-0.92-0.35h-14.6V143.17L204.37,143.17z"/>
	</g>
	<g>
		<path class="st1" d="M232.87,160.96h-2.54c-1.22,0-2.32-0.22-3.32-0.66c-1.01-0.44-1.88-1.01-2.71-1.84
			c-0.79-0.83-1.4-1.7-1.79-2.62c-0.04-0.04-0.04-0.09-0.09-0.13c-0.44-1.14-0.66-2.19-0.66-3.32v-8.31c0-0.57,0.22-1.09,0.66-1.49
			c0.35-0.39,0.87-0.61,1.44-0.61c0.57,0,1.09,0.22,1.49,0.61c0.39,0.39,0.61,0.92,0.61,1.49v8.35c0,0.57,0.13,1.14,0.35,1.66
			c0,0.04,0,0.04,0,0.09c0.22,0.48,0.52,0.87,0.92,1.31c0.48,0.44,0.92,0.74,1.36,0.92c0.52,0.22,1.09,0.35,1.7,0.35h2.54
			c0.61,0,1.18-0.13,1.66-0.35c0.48-0.17,0.92-0.48,1.4-0.92c0.44-0.48,0.74-0.92,0.92-1.36c0.22-0.52,0.35-1.05,0.35-1.7v-8.35
			c0-0.57,0.22-1.09,0.66-1.49c0.35-0.39,0.87-0.61,1.44-0.61c0.57,0,1.09,0.22,1.49,0.61c0.39,0.39,0.61,0.92,0.61,1.49v8.35
			c0,1.18-0.22,2.27-0.66,3.32c0,0.04-0.04,0.04-0.04,0.09c-0.44,0.92-1.01,1.79-1.79,2.58c-0.83,0.79-1.66,1.36-2.62,1.79
			c-0.04,0-0.04,0.04-0.09,0.04C235.19,160.74,234.09,160.96,232.87,160.96z M223.16,155.37c0.04,0.04,0.04,0.09,0.09,0.13
			c0.35,0.87,0.87,1.66,1.66,2.45c0.74,0.74,1.57,1.27,2.45,1.66c0.92,0.39,1.92,0.57,3.02,0.57h2.54c1.05,0,2.01-0.17,2.93-0.52
			c0,0,0.04-0.04,0.09-0.04c0.92-0.39,1.7-0.92,2.49-1.66c0.74-0.74,1.27-1.57,1.66-2.45c0-0.04,0.04-0.04,0.04-0.09
			c0.35-0.92,0.57-1.88,0.57-2.93v-8.39c0-0.35-0.13-0.66-0.35-0.87c-0.26-0.26-0.57-0.39-0.92-0.39c-0.35,0-0.66,0.13-0.87,0.39
			c-0.26,0.26-0.39,0.57-0.39,0.92v8.35c0,0.74-0.13,1.4-0.39,2.01c-0.22,0.52-0.57,1.05-1.09,1.62c-0.39,0.39-0.96,0.83-1.66,1.09
			c-0.57,0.26-1.27,0.39-1.97,0.39h-2.54c-0.7,0-1.36-0.13-2.01-0.39c-0.7-0.26-1.27-0.74-1.66-1.09c-0.48-0.52-0.87-1.05-1.09-1.62
			c0-0.04-0.04-0.09-0.04-0.09c-0.26-0.66-0.35-1.27-0.35-1.92v-8.39c0-0.35-0.13-0.66-0.35-0.87c-0.26-0.26-0.57-0.39-0.92-0.39
			c-0.35,0-0.66,0.13-0.87,0.39c-0.35,0.31-0.39,0.66-0.39,0.92v8.35C222.64,153.4,222.81,154.36,223.16,155.37z"/>
	</g>
	<g>
		<path class="st1" d="M244.59,160.66c-0.61,0-1.14-0.22-1.57-0.61c-0.39-0.39-0.66-0.92-0.66-1.49v-14.51
			c0-0.52,0.22-1.01,0.61-1.4c0.39-0.44,0.92-0.66,1.44-0.7c5.38-0.44,9.44-0.22,12.15,0.61c3.63,1.05,5.42,3.06,5.29,5.95
			c-0.04,2.4-1.14,4.15-3.32,5.2c-0.31,0.13-0.66,0.26-1.01,0.39l4.07,2.75c0.48,0.35,0.79,0.83,0.87,1.4
			c0.09,0.57-0.09,1.09-0.39,1.53c-0.35,0.48-0.87,0.79-1.49,0.83c-0.09,0-0.22,0.04-0.35,0.04c-0.44,0-0.87-0.13-1.27-0.39
			l-9.05-6.16c-0.44-0.31-0.7-0.66-0.83-1.09c-0.13-0.52-0.09-0.96,0.09-1.36c0.17-0.44,0.48-0.79,0.92-1.05
			c0.39-0.22,0.83-0.35,1.36-0.31c2.27,0.26,3.98,0.13,5.16-0.35c0.57-0.31,0.87-0.74,0.83-1.44c-0.09-0.87-0.79-1.53-2.19-1.97
			c-1.97-0.57-4.81-0.74-8.39-0.57v12.59c0,0.57-0.26,1.09-0.7,1.49C245.72,160.44,245.2,160.66,244.59,160.66z M249.39,142.56
			c-1.49,0-3.15,0.09-4.94,0.22c-0.35,0.04-0.66,0.17-0.92,0.44c-0.26,0.26-0.35,0.52-0.35,0.83v14.56c0,0.35,0.13,0.66,0.39,0.87
			c0.26,0.26,0.61,0.39,1.01,0.39c0.39,0,0.7-0.13,0.96-0.39c0.31-0.26,0.44-0.52,0.44-0.87v-12.98c0-0.22,0.17-0.39,0.39-0.39
			c3.89-0.22,6.95-0.04,9.05,0.57c1.75,0.52,2.67,1.44,2.8,2.71c0.04,1.05-0.44,1.79-1.31,2.23c-1.31,0.57-3.15,0.7-5.55,0.44
			c-0.04,0-0.09,0-0.13,0c-0.31,0-0.52,0.04-0.74,0.22c-0.31,0.17-0.48,0.35-0.57,0.66c-0.09,0.22-0.13,0.48-0.04,0.79
			c0.09,0.22,0.26,0.44,0.52,0.61l9.05,6.16c0.31,0.22,0.66,0.31,1.01,0.26c0.44-0.04,0.7-0.22,0.96-0.52
			c0.22-0.26,0.31-0.61,0.26-0.92c-0.09-0.35-0.26-0.61-0.57-0.83l-4.77-3.24c-0.13-0.09-0.22-0.26-0.17-0.39
			c0.04-0.17,0.13-0.31,0.31-0.31c0.7-0.17,1.27-0.35,1.7-0.57c1.92-0.87,2.84-2.36,2.89-4.46c0.13-2.49-1.44-4.15-4.72-5.16
			C254.6,142.82,252.28,142.56,249.39,142.56z"/>
	</g>
	<g>
		<path class="st1" d="M279.69,160.92c-0.13,0-0.26,0-0.39-0.04c-0.44-0.09-0.79-0.31-1.09-0.61l-10.54-10.89v9.44
			c0,0.57-0.22,1.09-0.61,1.49s-0.92,0.61-1.49,0.61c-0.57,0-1.09-0.22-1.49-0.66c-0.39-0.35-0.61-0.87-0.61-1.44v-14.65
			c0-0.44,0.13-0.83,0.39-1.18c0.17-0.31,0.52-0.57,0.96-0.74c0.31-0.13,0.74-0.22,1.18-0.13c0.39,0.09,0.74,0.31,1.09,0.57
			l10.54,10.93v-9.44c0-0.57,0.22-1.09,0.61-1.49c0.39-0.39,0.92-0.61,1.49-0.61s1.05,0.22,1.49,0.57c0.44,0.44,0.61,0.96,0.61,1.53
			v14.65c0,0.44-0.13,0.83-0.35,1.18c-0.22,0.35-0.52,0.61-0.92,0.79C280.22,160.87,279.95,160.92,279.69,160.92z M267.23,147.98
			c0.09,0,0.22,0.04,0.31,0.13l11.24,11.59c0.22,0.22,0.44,0.35,0.7,0.39c0.17,0.04,0.48,0,0.79-0.09c0.22-0.09,0.39-0.26,0.57-0.48
			c0.13-0.22,0.22-0.44,0.22-0.7v-14.65c0-0.35-0.13-0.66-0.39-0.92c-0.26-0.22-0.57-0.35-0.92-0.35s-0.66,0.13-0.92,0.35
			c-0.26,0.26-0.39,0.57-0.39,0.92v10.45c0,0.17-0.09,0.31-0.26,0.39c-0.17,0.04-0.35,0.04-0.44-0.09l-11.19-11.63
			c-0.22-0.17-0.44-0.31-0.7-0.35c-0.04,0-0.13,0-0.22,0c-0.17,0-0.35,0.04-0.48,0.09c-0.26,0.09-0.48,0.26-0.57,0.44
			c-0.17,0.26-0.26,0.48-0.26,0.74v14.65c0,0.35,0.13,0.66,0.39,0.87c0.26,0.26,0.57,0.39,0.92,0.39s0.66-0.13,0.92-0.39
			c0.22-0.22,0.35-0.57,0.35-0.87v-10.49c0-0.17,0.09-0.31,0.26-0.39C267.14,147.98,267.19,147.98,267.23,147.98z"/>
	</g>
</g>
<path id="path4766" class="st2" d="M48.91,131.85c-0.22,0-0.44,0-0.61,0.04c1.22,1.14,2.36,2.14,2.84,2.62
	c0.87,0.92,4.33,4.07,5.46,5.25c0.74,0.74,2.97,2.93,4.02,3.93c0.92,0.87,0.61,0.17,1.79,1.36c1.92,1.92,3.37,3.54,5.11,5.2
	c0-0.52-0.04-1.05-0.09-1.62c-0.74-1.36-2.27-2.23-3.37-3.19c-0.7-0.57-1.27-0.83-1.79-1.36c-0.31-0.35-1.44-1.44-1.62-1.7
	c-0.17-0.22-6.3-6.38-10.36-10.49C49.82,131.89,49.34,131.85,48.91,131.85L48.91,131.85z M46.9,131.98
	c-0.61,0.09-1.22,0.17-1.84,0.31c1.7,1.57,3.58,3.24,4.2,3.89c0.87,0.92,4.37,3.85,5.46,5.03c0.74,0.74,2.54,2.49,3.58,3.45
	c0.92,0.87,1.01,0.87,2.19,2.05c2.32,2.27,3.93,4.33,6.16,6.38c0.17,0.17,0.35,0.31,0.48,0.48c0.09-0.66,0.17-1.31,0.22-1.97
	c-1.84-1.57-3.93-3.41-5.73-4.94c-0.7-0.57-1.27-0.83-1.79-1.36c-0.31-0.35-1.44-1.44-1.62-1.7C58.09,143.3,50.83,136,46.9,131.98z
	 M52.4,132.2c1.44,1.44,5.73,5.51,6.73,6.56c0.74,0.74,3.32,3.15,4.37,4.15c0.92,0.87-0.04-0.17,1.14,1.01
	c0.83,0.83,1.57,1.62,2.32,2.36c-0.13-0.57-0.31-1.14-0.48-1.7c-0.09-0.09-0.17-0.17-0.26-0.22c-0.7-0.57-1.27-0.83-1.79-1.36
	c-0.31-0.35,0-0.17-0.22-0.44c-0.09-0.22-5.42-5.51-9.75-9.84C53.8,132.5,53.1,132.33,52.4,132.2L52.4,132.2z M43.92,132.55
	c-0.48,0.13-1.01,0.31-1.49,0.48c1.84,1.75,4.24,3.89,4.98,4.63c0.87,0.92,4.37,3.85,5.46,5.03c0.74,0.74,2.14,2.01,3.19,2.97
	c0.92,0.87,0.66,1.01,1.84,2.19c2.32,2.27,4.68,4.63,6.95,6.73c0.61,0.57,1.18,1.09,1.66,1.62c0.17-0.61,0.35-1.18,0.48-1.79
	c-2.1-1.84-4.85-4.28-7.21-6.3c-0.7-0.57-1.01-1.14-1.49-1.62c-0.31-0.35-1.7-1.09-1.88-1.36
	C56.25,144.83,47.55,136.22,43.92,132.55L43.92,132.55z M41.47,133.42c-0.57,0.26-1.14,0.52-1.66,0.83c1.88,1.84,4.77,4.24,5.6,5.11
	c0.87,0.92,4.46,4.07,5.55,5.2c0.74,0.74,1.05,0.83,2.1,1.79c0.92,0.87,1.79,1.62,2.97,2.8c2.32,2.27,4.59,5.2,6.86,7.26
	c0.92,0.83,1.75,1.79,2.45,2.62c0.35-0.66,0.66-1.31,0.92-1.97c-2.19-1.97-5.73-5.16-8.44-7.48c-0.7-0.57-0.87-1.14-1.36-1.62
	c-0.31-0.35-2.23-1.22-2.45-1.49C53.85,146.19,44.45,136.61,41.47,133.42L41.47,133.42z M57.82,134.16
	c1.49,1.44,2.97,2.89,3.54,3.45c0.52,0.52,2.01,1.84,3.24,2.89C62.9,137.84,60.54,135.65,57.82,134.16z M39.11,134.64
	c-0.48,0.31-0.92,0.61-1.36,0.92l0,0c1.84,1.84,4.15,3.85,4.98,4.72c0.87,0.92,4.81,4.07,5.95,5.2c0.74,0.74,0.74,0.7,1.79,1.7
	c0.92,0.87,2.1,1.75,3.28,2.93c2.32,2.27,4.59,5.2,6.86,7.26c1.66,1.53,3.06,2.93,3.58,3.5c0.26-0.39,0.52-0.79,0.74-1.22
	c-2.54-2.45-8.66-8.35-11.41-11.24c-0.31-0.35-1.88-0.87-2.05-1.14C51.27,146.97,41.47,137.22,39.11,134.64L39.11,134.64z
	 M37.23,136c-0.44,0.35-0.87,0.74-1.27,1.14c-0.04,0.39,0.13,0.7,0.39,0.92c1.79,1.7,4.42,3.85,5.25,4.72
	c0.87,0.92,4.81,4.07,5.95,5.2c0.74,0.74,0.74,0.7,1.79,1.7c2.67,2.45,6.91,6.86,10.01,10.1c1.36,1.44,2.62,2.58,3.28,3.15
	c0.39-0.44,0.79-0.92,1.18-1.4c-0.57-0.52-10.36-9.01-13.81-12.63c-0.31-0.35-1.84-1.57-2.05-1.84
	C47.77,146.8,40.12,139.06,37.23,136L37.23,136z M35.4,137.7c-0.44,0.44-0.83,0.92-1.18,1.4c1.79,1.66,4.81,4.37,5.68,5.29
	c0.87,0.92,3.02,2.58,4.11,3.72c0.74,0.74,2.14,2.14,3.19,3.15c2.67,2.54,6.99,7.04,10.1,10.32c1.7,1.79,2.89,3.02,3.28,3.37
	c0.57-0.44,1.09-0.92,1.57-1.4c-1.09-1.05-11.19-10.62-14.51-14.16c-0.31-0.35-0.7-0.13-0.87-0.39
	C46.46,148.68,37.41,139.89,35.4,137.7L35.4,137.7z M33.87,139.54c-0.39,0.52-0.74,1.09-1.09,1.66c1.62,1.4,5.16,4.72,6.08,5.68
	c0.79,0.83,1.27,1.18,1.88,1.84c0.26,0.26,0.87,0.87,1.49,1.49c0.74,0.74,0.26,0.13,1.31,1.09c4.15,3.89,14.03,13.64,15.21,14.82
	c0.52-0.35,1.05-0.7,1.53-1.09c-1.31-1.22-11.15-10.62-14.47-14.08c-0.31-0.35-1.75-0.92-1.97-1.18
	C43.7,149.55,36.14,141.99,33.87,139.54L33.87,139.54z M32.6,141.51c-0.39,0.7-0.74,1.49-1.05,2.23c1.49,1.31,5.25,4.94,6.34,5.81
	c0.96,0.79,1.14,0.96,1.75,1.62c0.52,0.74,1.66,1.27,2.05,1.62c4.15,3.89,13.6,13.46,14.73,14.6c0.7-0.31,1.36-0.66,2.01-1.05
	c-1.57-1.4-12.81-11.54-16.13-15c-0.31-0.35-2.49-2.49-2.71-2.71C39.38,148.33,34.39,143.47,32.6,141.51L32.6,141.51z M31.46,144.04
	c-0.26,0.7-0.48,1.4-0.61,2.1c1.31,1.18,5.33,5.38,6.47,6.25c1.14,0.83,0.31,0.39,0.92,1.01c0.26,0.26-0.79-1.57-0.17-0.96
	c0.74,0.74,1.79,1.97,2.84,2.97c4.07,3.8,11.98,11.59,13.29,12.85c0.57-0.17,1.14-0.35,1.66-0.57c-1.49-1.4-12.68-12.11-16-15.56
	c-0.31-0.35-1.05-0.35-1.05-0.66C38.81,151.21,33.12,145.92,31.46,144.04L31.46,144.04z M30.76,146.45
	c-0.31,1.31-0.44,2.67-0.48,4.02c0,9.22,6.82,17.05,15.96,18.36c-3.45-3.24-9.22-8.74-11.54-11.32c-0.31-0.35-1.97,0.39-2.01,0.04
	c-0.04-2.14-0.44-3.15-0.26-3.15c0.13,0,0.52,0.61,1.62,1.75c1.84,1.88,9.14,9.09,12.9,12.72c0.66,0.09,1.31,0.13,1.97,0.13
	c0.44,0,0.87-0.04,1.36-0.09c-2.75-2.67-9.79-9.53-12.63-12.5c-0.31-0.35-3.5-2.1-3.5-2.4c0-0.31-3.28-3.63-3.28-3.89
	c0.48,0.22,2.45,2.14,3.76,3.15c1.14,0.83,1.75,1.18,2.4,1.84c0.26,0.26,0.52,0.52,1.14,1.14c0.74,0.74,1.7,1.84,2.75,2.8
	c3.5,3.15,8.18,7.83,10.19,9.79c0.83-0.09,1.66-0.26,2.45-0.48c-1.88-1.75-12.77-11.89-16-15.3c-0.31-0.35-1.09-0.13-1.09-0.48
	c0-0.22-3.89-4.28-5.51-6.12C30.81,146.49,30.81,146.45,30.76,146.45L30.76,146.45z"/>
<path id="path4768" class="st0" d="M32.38,141.99c-1.49,0.7-2.84,1.44-4.11,2.23c-2.89,1.66-5.2,3.45-6.73,5.51
	c-1.53,2.05-2.23,4.98-0.96,7.43c1.09,2.05,3.41,2.75,5.51,2.8c2.1,0,4.42-0.48,6.99-1.18c5.2-1.49,11.41-4.02,17.57-6.47
	s12.24-4.85,16.66-5.9c2.23-0.52,4.02-0.7,4.98-0.57c0.48,0.09,0.7,0.17,0.74,0.22s0.04-0.04,0.09,0.13
	c0.22,0.92,0.13,1.49-0.44,2.36s-1.7,1.97-3.5,3.1c-0.57,0.35-1.22,0.74-1.92,1.09c-0.31,2.89-1.53,5.46-1.97,6.34
	c2.45-1.09,4.63-2.19,6.43-3.37c2.1-1.36,3.8-2.8,4.94-4.55c1.14-1.79,1.57-3.98,1.09-6.12c-0.26-1.14-0.96-2.19-1.84-2.84
	c-0.92-0.7-1.92-1.01-2.97-1.14c-2.05-0.31-4.28,0.04-6.78,0.66c-5.03,1.22-11.15,3.63-17.31,6.12s-12.33,4.9-17.05,6.25
	c-2.36,0.66-4.37,1.01-5.64,1.01c-1.27,0-1.31-0.22-1.31-0.22c-0.35-0.7-0.35-1.05,0.57-2.27c0.87-1.18,2.62-2.67,5.03-4.11
	C31.03,144.96,31.46,143.74,32.38,141.99L32.38,141.99z"/>
</svg>
