<?xml version="1.0" encoding="UTF-8"?>
<!DOCTYPE svg PUBLIC "-//W3C//DTD SVG 1.1//EN" "http://www.w3.org/Graphics/SVG/1.1/DTD/svg11.dtd">
<!-- Creator: CorelDRAW 2019 (64-Bit) -->
<svg xmlns="http://www.w3.org/2000/svg" xml:space="preserve" width="179.499mm" height="42.8355mm" version="1.1" style="shape-rendering:geometricPrecision; text-rendering:geometricPrecision; image-rendering:optimizeQuality; fill-rule:evenodd; clip-rule:evenodd"
viewBox="0 0 179.4988 42.8355"
 xmlns:xlink="http://www.w3.org/1999/xlink"
 xmlns:xodm="http://www.corel.com/coreldraw/odm/2003">
 <defs>
  <style type="text/css">
   <![CDATA[
    .fil0 {fill:black}
   ]]>
  </style>
 </defs>
 <g id="Layer_x0020_1">
  <metadata id="CorelCorpID_0Corel-Layer"/>
  <g id="_667769728">
   <path class="fil0" d="M166.7757 42.8355l12.7231 -7.3692 0 -15.5868 -12.1921 -7.0506 -49.8324 0 -8.9589 -12.8289 -38.3275 0 -9.012 12.8289 -49.0359 0 -12.14 6.9976 0 15.6398 12.7757 7.3692 154 0zm-164.1254 -8.3254l10.7078 6.2028 152.7818 0 10.7088 -6.2028 0 -13.6756 -10.1243 -5.885 -50.3092 0 -9.0646 -12.8289 -36.1023 0 -8.9594 12.8289 -49.5663 0 -10.0723 5.8319 0 13.7287z"/>
   <path class="fil0" d="M82.6526 11.8356c0,0.672 0.5472,1.2042 1.2042,1.1969l4.9179 0 0 -1.4973 -4.6185 0 0 -0.4197 3.6387 0 0 -1.4905 -5.135 0 -0.0073 2.2106z"/>
   <path class="fil0" d="M82.6599 6.8983c0,-0.6189 0.5331,-1.1939 1.1969,-1.1911l4.9179 0 0 1.4905 -4.6185 0 0 0.4197 3.6387 0 0 1.5105 -5.1423 0 0.0073 -2.2296z"/>
   <polygon class="fil0" points="115.5135,26.0819 131.099,26.0819 131.099,32.2848 125.5333,36.0482 108.3303,36.0482 114.0292,32.2307 124.1007,32.2307 124.1007,29.8989 108.5154,29.8989 108.5154,23.8279 114.2683,19.9326 131.4443,19.9326 125.7713,23.7481 115.5135,23.7481 "/>
   <polygon class="fil0" points="133.2742,36.0482 140.2712,36.0482 140.2712,19.9326 133.2742,19.9326 "/>
   <polygon class="fil0" points="149.9725,26.0819 165.5577,26.0819 165.5577,32.2848 159.9896,36.0482 142.7887,36.0482 148.4878,32.2307 158.5598,32.2307 158.5598,29.8989 142.9746,29.8989 142.9746,23.8279 148.726,19.9326 165.9031,19.9326 160.2288,23.7481 149.9725,23.7481 "/>
   <polygon class="fil0" points="93.3551,32.2307 93.3551,29.8989 100.0595,29.8989 105.7584,26.0819 93.3551,26.0819 93.3551,23.7481 103.4523,23.7481 109.1258,19.9326 92.4531,19.9326 86.357,23.6707 86.357,36.0482 103.3213,36.0482 109.0462,32.2307 "/>
   <polygon class="fil0" points="44.3713,32.2307 44.3713,29.8989 51.0776,29.8989 56.7757,26.0819 44.3713,26.0819 44.3713,23.7481 54.4696,23.7481 60.142,19.9326 43.4695,19.9326 37.3742,23.6707 37.3742,36.0482 54.3375,36.0482 60.0633,32.2307 "/>
   <polygon class="fil0" points="77.3976,30.6945 68.7041,25.2862 68.7041,36.0482 61.7056,36.0482 61.7056,19.9326 68.8094,19.9326 77.3976,24.6504 77.3976,19.9326 84.3963,19.9326 84.3963,36.0482 77.3976,36.0482 "/>
   <polygon class="fil0" points="19.8794,23.7481 19.8794,32.2307 28.5731,32.2307 28.5731,29.8989 21.4697,29.8989 27.1424,26.0819 35.5715,26.0819 35.5715,32.444 30.2164,36.0482 12.8825,36.0482 12.8825,23.8567 18.6866,19.9326 37.6653,19.9326 32.0194,23.7481 "/>
   <path class="fil0" d="M83.6809 3.6982c-1.6685,0 -3.0228,1.3536 -3.0228,3.0223l0 5.2904c0,1.6692 1.3543,3.0224 3.0228,3.0224l5.0947 0 0 -1.4901 -4.9681 0c-0.8759,0 -1.6536,-0.8307 -1.6536,-1.7066l0 -4.9437c0,-0.8759 0.7777,-1.6862 1.6536,-1.6862l4.9681 0 0 -1.5105 -5.0947 0 0 0.002z"/>
   <path class="fil0" d="M93.3268 11.5761l0 -4.3784 4.8575 0 0 -1.4905 -5.1302 0c-0.6641,-0.0028 -1.1974,0.5722 -1.1974,1.1911l-0.0059 4.9373c0,0.672 0.5465,1.2042 1.2033,1.1969l3.1295 0 -0.0084 -3.4338 -2.3543 0 0 1.4769 0.8702 0 0 0.4995 -1.3643 0 0 0.001z"/>
   <path class="fil0" d="M79.2178 3.6841l-4.881 0c-2.0562,0 -3.724,1.6667 -3.724,3.723 0,2.0567 1.6678,3.6836 3.724,3.6665l1.4871 0 0 0.5025 -5.1784 0 0 1.4574 5.0101 0c0.9416,0 1.7056,-0.764 1.7056,-1.7047 0,-0.9418 -0.764,-1.6926 -1.7056,-1.6926l-1.2982 -0.0048c-1.2217,0 -2.2125,-0.991 -2.2125,-2.2121 0,-1.2217 0.9897,-2.2126 2.2125,-2.2126l4.8634 0 -0.003 -1.5226z"/>
   <path class="fil0" d="M79.2178 7.1578l-5.0733 0 0 0.4991 1.5221 0.0034c2.0568,0 3.7236,1.6268 3.7236,3.683 0,2.0568 -1.6668,3.688 -3.7236,3.688l-5.0211 -0.0102 0 -1.4822 5.0101 0c1.2211,0 2.212,-0.9894 2.212,-2.2111 0,-1.2218 -0.9909,-2.199 -2.212,-2.199l-1.2982 -0.0049c-0.9417,0 -1.7057,-0.764 -1.7057,-1.7056 0,-0.9417 0.764,-1.7057 1.7057,-1.7057l4.8634 0 -0.003 1.4452z"/>
   <path class="fil0" d="M103.8599 5.452c-0.0604,-0.142 -0.0818,-0.1757 -0.2455,-0.1757 -0.1631,0 -0.203,0.0847 -0.2653,0.2269l-3.0935 9.5301 1.6279 0.0019 1.7495 -5.2831 0.5759 1.7841 -1.155 0 0 1.5036 3.2878 0 -2.4818 -7.5878z"/>
   <path class="fil0" d="M92.8783 15.0342c-1.6692,0 -3.0233,-1.3531 -3.0233,-3.0223l0 -5.2904c0,-1.6687 1.3541,-3.0223 3.0233,-3.0223l5.306 0 0 1.5109 -5.1785 0c-0.8774,0 -1.6544,0.8097 -1.6544,1.6862l0 4.9432c0,0.8765 0.7761,1.7067 1.6544,1.7067l3.6691 0 0 -4.4441 -2.8529 0 0 -1.4837 4.3682 0 0 7.0676 3.1124 -9.6294c0.3349,-0.9538 1.2426,-1.6379 2.3118,-1.6379 1.0912,0 2.0174,0.7138 2.332,1.7013l3.2316 9.9152 -6.1241 0 0 -1.49 3.9782 0 -2.6974 -8.2699c-0.1573,-0.4547 -0.4393,-0.5088 -0.7203,-0.5088 -0.2931,0 -0.5649,0.1207 -0.7177,0.5366l-3.1665 9.7321 -6.8519 0 0 -0.001z"/>
  </g>
 </g>
</svg>
